<svg width="735" height="651" xmlns="http://www.w3.org/2000/svg"><g><path d="M-103,-101L-154,610L-96,370Z" fill="#ffd5af" stroke="#ffd5af"/><path d="M-103,-101L-96,370L-19,155Z" fill="#ffecca" stroke="#ffecca"/><path d="M-103,-101L-19,155L108,-9Z" fill="#fff2df" stroke="#fff2df"/><path d="M-103,-101L108,-9L215,-22Z" fill="#ffead8" stroke="#ffead8"/><path d="M-103,-101L215,-22L502,-198Z" fill="#fedbbd" stroke="#fedbbd"/><path d="M108,-9L-19,155L84,191Z" fill="#ffe0b8" stroke="#ffe0b8"/><path d="M108,-9L84,191L219,99Z" fill="#fed9ad" stroke="#fed9ad"/><path d="M108,-9L219,99L215,-22Z" fill="#fedcb8" stroke="#fedcb8"/><path d="M215,-22L219,99L584,101Z" fill="#fabf8e" stroke="#fabf8e"/><path d="M215,-22L584,101L502,-198Z" fill="#f5b491" stroke="#f5b491"/><path d="M502,-198L584,101L788,-50Z" fill="#ec9280" stroke="#ec9280"/><path d="M502,-198L788,-50L987,-99Z" fill="#e68080" stroke="#e68080"/><path d="M788,-50L584,101L829,40Z" fill="#e77c73" stroke="#e77c73"/><path d="M788,-50L829,40L987,-99Z" fill="#e18080" stroke="#e18080"/><path d="M987,-99L829,40L896,194Z" fill="#df7b6f" stroke="#df7b6f"/><path d="M987,-99L896,194L1021,348Z" fill="#dc6f53" stroke="#dc6f53"/><path d="M-19,155L-96,370L84,191Z" fill="#ffd6a4" stroke="#ffd6a4"/><path d="M84,191L-96,370L193,289Z" fill="#ffc48d" stroke="#ffc48d"/><path d="M84,191L193,289L241,261Z" fill="#fec07d" stroke="#fec07d"/><path d="M84,191L241,261L219,99Z" fill="#feca8b" stroke="#feca8b"/><path d="M219,99L241,261L475,242Z" fill="#fbb56d" stroke="#fbb56d"/><path d="M219,99L475,242L584,101Z" fill="#f6a566" stroke="#f6a566"/><path d="M584,101L475,242L672,358Z" fill="#ef7e3c" stroke="#ef7e3c"/><path d="M584,101L672,358L896,194Z" fill="#e86940" stroke="#e86940"/><path d="M584,101L896,194L829,40Z" fill="#e6735d" stroke="#e6735d"/><path d="M896,194L672,358L1021,348Z" fill="#e1532e" stroke="#e1532e"/><path d="M-96,370L-154,610L72,505Z" fill="#ff9e78" stroke="#ff9e78"/><path d="M-96,370L72,505L193,289Z" fill="#ffaa77" stroke="#ffaa77"/><path d="M193,289L72,505L359,601Z" fill="#fe8648" stroke="#fe8648"/><path d="M193,289L359,601L241,261Z" fill="#fd934e" stroke="#fd934e"/><path d="M241,261L359,601L475,242Z" fill="#f98540" stroke="#f98540"/><path d="M475,242L359,601L604,468Z" fill="#f35f1a" stroke="#f35f1a"/><path d="M475,242L604,468L672,358Z" fill="#ee5f22" stroke="#ee5f22"/><path d="M672,358L604,468L723,532Z" fill="#ea390e" stroke="#ea390e"/><path d="M672,358L723,532L1021,348Z" fill="#e43816" stroke="#e43816"/><path d="M1021,348L723,532L867,584Z" fill="#e12606" stroke="#e12606"/><path d="M1021,348L867,584L1039,746Z" fill="#dc1400" stroke="#dc1400"/><path d="M-154,610L-124,1020L-128,732Z" fill="#ff8080" stroke="#ff8080"/><path d="M-154,610L-128,732L33,675Z" fill="#ff7d78" stroke="#ff7d78"/><path d="M-154,610L33,675L72,505Z" fill="#ff806b" stroke="#ff806b"/><path d="M72,505L33,675L359,601Z" fill="#fe6d48" stroke="#fe6d48"/><path d="M359,601L33,675L320,748Z" fill="#fe5837" stroke="#fe5837"/><path d="M359,601L320,748L459,785Z" fill="#f83f1c" stroke="#f83f1c"/><path d="M359,601L459,785L604,468Z" fill="#f4330a" stroke="#f4330a"/><path d="M604,468L459,785L723,532Z" fill="#ee2300" stroke="#ee2300"/><path d="M723,532L459,785L778,824Z" fill="#eb0d00" stroke="#eb0d00"/><path d="M723,532L778,824L867,584Z" fill="#e50000" stroke="#e50000"/><path d="M867,584L778,824L943,853Z" fill="#e10000" stroke="#e10000"/><path d="M867,584L943,853L1039,746Z" fill="#dd0000" stroke="#dd0000"/><path d="M-128,732L-124,1020L30,1034Z" fill="#ff7c76" stroke="#ff7c76"/><path d="M-128,732L30,1034L33,675Z" fill="#ff766c" stroke="#ff766c"/><path d="M33,675L30,1034L256,987Z" fill="#ff6752" stroke="#ff6752"/><path d="M33,675L256,987L320,748Z" fill="#fe5c3e" stroke="#fe5c3e"/><path d="M320,748L256,987L459,785Z" fill="#fa4523" stroke="#fa4523"/><path d="M459,785L256,987L517,952Z" fill="#f63916" stroke="#f63916"/><path d="M459,785L517,952L703,885Z" fill="#ef1e00" stroke="#ef1e00"/><path d="M459,785L703,885L778,824Z" fill="#eb0e00" stroke="#eb0e00"/><path d="M778,824L703,885L943,853Z" fill="#e40000" stroke="#e40000"/><path d="M30,1034L517,952L256,987Z" fill="#fd5331" stroke="#fd5331"/><path d="M517,952L943,853L703,885Z" fill="#e80100" stroke="#e80100"/></g></svg>