<svg width="841" height="651" xmlns="http://www.w3.org/2000/svg"><g><path d="M-174,-147L-179,994L-110,602Z" fill="#e992cc" stroke="#e992cc"/><path d="M-174,-147L-110,602L-109,230Z" fill="#ffe3ed" stroke="#ffe3ed"/><path d="M-174,-147L-109,230L-94,25Z" fill="#ffffff" stroke="#ffffff"/><path d="M-174,-147L-94,25L123,-183Z" fill="#fffffe" stroke="#fffffe"/><path d="M123,-183L-94,25L195,154Z" fill="#fff3f1" stroke="#fff3f1"/><path d="M123,-183L195,154L356,-113Z" fill="#fee0df" stroke="#fee0df"/><path d="M123,-183L356,-113L514,-103Z" fill="#fdcbd9" stroke="#fdcbd9"/><path d="M123,-183L514,-103L815,-136Z" fill="#f3a4cd" stroke="#f3a4cd"/><path d="M123,-183L815,-136L1211,-145Z" fill="#c280bc" stroke="#c280bc"/><path d="M356,-113L195,154L394,108Z" fill="#fdcfda" stroke="#fdcfda"/><path d="M356,-113L394,108L514,-103Z" fill="#fbb4d0" stroke="#fbb4d0"/><path d="M514,-103L394,108L455,124Z" fill="#f7abcf" stroke="#f7abcf"/><path d="M514,-103L455,124L805,165Z" fill="#e08ac3" stroke="#e08ac3"/><path d="M514,-103L805,165L815,-136Z" fill="#c380bc" stroke="#c380bc"/><path d="M815,-136L805,165L917,-60Z" fill="#a280b8" stroke="#a280b8"/><path d="M815,-136L917,-60L1211,-145Z" fill="#8080b3" stroke="#8080b3"/><path d="M917,-60L805,165L999,18Z" fill="#9280b6" stroke="#9280b6"/><path d="M917,-60L999,18L1211,-145Z" fill="#8080b1" stroke="#8080b1"/><path d="M1211,-145L999,18L1252,87Z" fill="#8080ad" stroke="#8080ad"/><path d="M-94,25L-109,230L195,154Z" fill="#fff5f1" stroke="#fff5f1"/><path d="M195,154L-109,230L62,342Z" fill="#ffd6e1" stroke="#ffd6e1"/><path d="M195,154L62,342L294,237Z" fill="#fec5d0" stroke="#fec5d0"/><path d="M195,154L294,237L394,108Z" fill="#fdc8ce" stroke="#fdc8ce"/><path d="M394,108L294,237L455,124Z" fill="#fcb5c8" stroke="#fcb5c8"/><path d="M455,124L294,237L610,367Z" fill="#f78cbb" stroke="#f78cbb"/><path d="M455,124L610,367L805,165Z" fill="#d869ae" stroke="#d869ae"/><path d="M805,165L610,367L746,390Z" fill="#c1469f" stroke="#c1469f"/><path d="M805,165L746,390L888,253Z" fill="#aa56a2" stroke="#aa56a2"/><path d="M805,165L888,253L999,18Z" fill="#9578ac" stroke="#9578ac"/><path d="M999,18L888,253L1179,285Z" fill="#8070a3" stroke="#8070a3"/><path d="M999,18L1179,285L1252,87Z" fill="#807aa6" stroke="#807aa6"/><path d="M1252,87L1179,285L1246,677Z" fill="#803689" stroke="#803689"/><path d="M-109,230L-110,602L17,460Z" fill="#f89bd5" stroke="#f89bd5"/><path d="M-109,230L17,460L62,342Z" fill="#ffb4d9" stroke="#ffb4d9"/><path d="M62,342L17,460L228,475Z" fill="#f98dc6" stroke="#f98dc6"/><path d="M62,342L228,475L294,237Z" fill="#fe99c0" stroke="#fe99c0"/><path d="M294,237L228,475L440,506Z" fill="#fd6eb4" stroke="#fd6eb4"/><path d="M294,237L440,506L610,367Z" fill="#f85aac" stroke="#f85aac"/><path d="M610,367L440,506L749,481Z" fill="#d12095" stroke="#d12095"/><path d="M610,367L749,481L746,390Z" fill="#c41f96" stroke="#c41f96"/><path d="M746,390L749,481L1036,485Z" fill="#95188a" stroke="#95188a"/><path d="M746,390L1036,485L888,253Z" fill="#972c93" stroke="#972c93"/><path d="M888,253L1036,485L1179,285Z" fill="#803991" stroke="#803991"/><path d="M1179,285L1036,485L1158,595Z" fill="#721880" stroke="#721880"/><path d="M1179,285L1158,595L1246,677Z" fill="#5c1276" stroke="#5c1276"/><path d="M-110,602L-179,994L-112,716Z" fill="#8091bd" stroke="#8091bd"/><path d="M-110,602L-112,716L129,804Z" fill="#9491bd" stroke="#9491bd"/><path d="M-110,602L129,804L230,710Z" fill="#9484b2" stroke="#9484b2"/><path d="M-110,602L230,710L17,460Z" fill="#c088bb" stroke="#c088bb"/><path d="M17,460L230,710L228,475Z" fill="#cf7baf" stroke="#cf7baf"/><path d="M228,475L230,710L440,506Z" fill="#c864a3" stroke="#c864a3"/><path d="M440,506L230,710L577,818Z" fill="#9b4793" stroke="#9b4793"/><path d="M440,506L577,818L749,481Z" fill="#9d1c8a" stroke="#9d1c8a"/><path d="M749,481L577,818L771,822Z" fill="#5a127d" stroke="#5a127d"/><path d="M749,481L771,822L958,649Z" fill="#50127c" stroke="#50127c"/><path d="M749,481L958,649L1036,485Z" fill="#66127e" stroke="#66127e"/><path d="M1036,485L958,649L1158,595Z" fill="#461278" stroke="#461278"/><path d="M1158,595L958,649L1153,863Z" fill="#161270" stroke="#161270"/><path d="M1158,595L1153,863L1246,677Z" fill="#13126d" stroke="#13126d"/><path d="M-112,716L-179,994L10,932Z" fill="#8091b7" stroke="#8091b7"/><path d="M-112,716L10,932L129,804Z" fill="#808cb4" stroke="#808cb4"/><path d="M129,804L10,932L365,968Z" fill="#7e7a9d" stroke="#7e7a9d"/><path d="M129,804L365,968L230,710Z" fill="#7e6f99" stroke="#7e6f99"/><path d="M230,710L365,968L577,818Z" fill="#7c4e8e" stroke="#7c4e8e"/><path d="M577,818L365,968L528,969Z" fill="#733583" stroke="#733583"/><path d="M577,818L528,969L696,966Z" fill="#5e1a79" stroke="#5e1a79"/><path d="M577,818L696,966L771,822Z" fill="#4b1276" stroke="#4b1276"/><path d="M771,822L696,966L924,958Z" fill="#2e1270" stroke="#2e1270"/><path d="M771,822L924,958L958,649Z" fill="#191272" stroke="#191272"/><path d="M958,649L924,958L1153,863Z" fill="#00126d" stroke="#00126d"/><path d="M-179,994L696,966L528,969Z" fill="#7d598b" stroke="#7d598b"/><path d="M-179,994L528,969L365,968Z" fill="#7e6f92" stroke="#7e6f92"/><path d="M-179,994L365,968L10,932Z" fill="#7f86a6" stroke="#7f86a6"/></g></svg>